<svg width="26" height="26" viewBox="0 0 26 26" fill="none" xmlns="http://www.w3.org/2000/svg">
<path d="M12.7063 14.8248L22.2368 9.53007L12.7063 4.23535L3.17578 9.53007L12.7063 14.8248Z" stroke="white" stroke-width="1.05894"/>
<path d="M12.7071 14.8254L19.2302 11.2017C20.0885 13.3811 20.3321 15.7542 19.9344 18.0626C17.2484 18.3232 14.7161 19.4356 12.7071 21.2373C10.6983 19.4358 8.16643 18.3235 5.48086 18.0626C5.08291 15.7543 5.3265 13.381 6.18506 11.2017L12.7071 14.8254Z" stroke="white" stroke-width="1.05894"/>
<path d="M12.7063 14.8248L22.2368 9.53007L12.7063 4.23535L3.17578 9.53007L12.7063 14.8248ZM12.7063 14.8248L19.2294 11.2011C20.0877 13.3805 20.3312 15.7537 19.9336 18.062C17.2476 18.3227 14.7153 19.435 12.7063 21.2367C10.6975 19.4352 8.16561 18.3229 5.48004 18.062C5.08209 15.7537 5.32568 13.3804 6.18424 11.2011L12.7063 14.8248ZM8.4705 21.1784V13.2364L12.7063 10.8834" stroke="white" stroke-width="1.58842" stroke-linecap="round" stroke-linejoin="round"/>
</svg>
