<svg width="44" height="44" viewBox="0 0 44 44" fill="none" xmlns="http://www.w3.org/2000/svg">
<path d="M9.56555 32.2301C13.3153 30.1106 17.5508 28.9999 21.8581 29.0064C26.3255 29.0064 30.5195 30.1769 34.1506 32.2301M27.219 18.2846C27.219 19.7064 26.6542 21.07 25.6488 22.0754C24.6435 23.0807 23.2799 23.6455 21.8581 23.6455C20.4363 23.6455 19.0727 23.0807 18.0674 22.0754C17.062 21.07 16.4972 19.7064 16.4972 18.2846C16.4972 16.8628 17.062 15.4993 18.0674 14.4939C19.0727 13.4886 20.4363 12.9237 21.8581 12.9237C23.2799 12.9237 24.6435 13.4886 25.6488 14.4939C26.6542 15.4993 27.219 16.8628 27.219 18.2846ZM37.9408 21.8586C37.9408 23.9706 37.5248 26.0619 36.7166 28.0132C35.9083 29.9644 34.7237 31.7374 33.2303 33.2308C31.7369 34.7242 29.9639 35.9088 28.0127 36.7171C26.0614 37.5253 23.9701 37.9413 21.8581 37.9413C19.7461 37.9413 17.6548 37.5253 15.7035 36.7171C13.7523 35.9088 11.9793 34.7242 10.4859 33.2308C8.99249 31.7374 7.80784 29.9644 6.99961 28.0132C6.19138 26.0619 5.77539 23.9706 5.77539 21.8586C5.77539 17.5932 7.46981 13.5025 10.4859 10.4864C13.502 7.4703 17.5927 5.77588 21.8581 5.77588C26.1235 5.77588 30.2142 7.4703 33.2303 10.4864C36.2464 13.5025 37.9408 17.5932 37.9408 21.8586Z" stroke="#101511" stroke-width="2.11789" stroke-linecap="round" stroke-linejoin="round"/>
</svg>
