<svg width="25" height="25" viewBox="0 0 25 25" fill="none" xmlns="http://www.w3.org/2000/svg">
<path d="M5.95108 18.5115C8.04949 17.3254 10.4197 16.7039 12.8301 16.7075C15.3301 16.7075 17.6771 17.3625 19.7091 18.5115M15.8301 10.7075C15.8301 11.5032 15.514 12.2662 14.9514 12.8288C14.3888 13.3914 13.6257 13.7075 12.8301 13.7075C12.0344 13.7075 11.2714 13.3914 10.7088 12.8288C10.1461 12.2662 9.83008 11.5032 9.83008 10.7075C9.83008 9.91187 10.1461 9.14881 10.7088 8.5862C11.2714 8.02359 12.0344 7.70752 12.8301 7.70752C13.6257 7.70752 14.3888 8.02359 14.9514 8.5862C15.514 9.14881 15.8301 9.91187 15.8301 10.7075ZM21.8301 12.7075C21.8301 13.8894 21.5973 15.0597 21.145 16.1517C20.6927 17.2436 20.0298 18.2358 19.194 19.0715C18.3583 19.9072 17.3662 20.5701 16.2742 21.0224C15.1823 21.4747 14.012 21.7075 12.8301 21.7075C11.6482 21.7075 10.4779 21.4747 9.38593 21.0224C8.294 20.5701 7.30184 19.9072 6.46612 19.0715C5.63039 18.2358 4.96745 17.2436 4.51516 16.1517C4.06287 15.0597 3.83008 13.8894 3.83008 12.7075C3.83008 10.3206 4.77829 8.03139 6.46612 6.34356C8.15394 4.65573 10.4431 3.70752 12.8301 3.70752C15.217 3.70752 17.5062 4.65573 19.194 6.34356C20.8819 8.03139 21.8301 10.3206 21.8301 12.7075Z" stroke="white" stroke-width="2" stroke-linecap="round" stroke-linejoin="round"/>
</svg>
